<?xml version="1.0" standalone="no"?><!DOCTYPE svg PUBLIC "-//W3C//DTD SVG 1.1//EN" "http://www.w3.org/Graphics/SVG/1.1/DTD/svg11.dtd"><svg t="1657079505534" class="icon" viewBox="0 0 1024 1024" version="1.1" xmlns="http://www.w3.org/2000/svg" p-id="3352" xmlns:xlink="http://www.w3.org/1999/xlink" width="200" height="200"><defs><style type="text/css"></style></defs><path d="M594.7 124.2c-35.4-23.9-72.4-25.1-79.5-25.1h-0.9C390.2 106.1 370.8 208 361.4 257l-0.9 4.9c-4.6 23.6-3.5 40.9 3.1 50.1 4.5 6.2 12.2 9.7 25.1 11.4 2.5 0.3 4.9 0.5 7.2 0.5 20 0 29.3-12.7 35.4-48.5 12.1-70.9 51.9-96 82.3-96 20.5 0 40.1 10.5 53.9 28.8 23.3 31 23 97.4 7.2 131.8-12 26.2-45.9 52-88.8 84.6-26 19.8-55.5 42.1-81.9 66.5-40.7 37.5-46.4 59.2-46.4 77V919c0 2.6 2.1 4.8 4.8 4.8h298.1c2.6 0 4.8-2.1 4.8-4.8V289c-1-78.3-24.8-133.8-70.6-164.8z m14.6 614.6c-17.7 27.6-47.8 52.8-89.5 74.9-2.6 1.4-5.5 2.1-8.3 2.1-2.9 0-5.7-0.7-8.3-2.1-41.7-22.1-71.8-47.3-89.5-74.9-20.2-31.5-19.5-58.3-15.3-75.2 8.2-33.1 36.3-56.2 68.4-56.2 16.4 0 31.9 6.4 44.7 18 12.8-11.6 28.3-18 44.7-18 32 0 60.2 23.1 68.4 56.2 4.1 16.9 4.9 43.7-15.3 75.2z" fill="#FFD976" p-id="3353"></path><path d="M700.8 288.7c-1.4-113.1-47.7-167.9-86.2-194-42.9-28.9-86.9-31.2-99.4-31.2H512.6c-65.3 3.6-114.6 29.9-146.8 78-25.9 38.8-34.3 82.6-39.3 108.7l-0.9 4.8c-6.7 34.4-3.7 59.8 9.2 77.7 15.5 21.5 41 24.7 49.3 25.8 4 0.5 8 0.8 11.7 0.8 57.1 0 66.8-56.7 70.5-78 8.4-49.1 30.7-66.5 47.2-66.5 9.3 0 18.4 5.2 25.5 14.7 13.4 17.8 15.2 69.6 3.3 95.6-8.3 18.1-42.2 43.9-78 71.1-26.6 20.2-56.8 43.2-84.5 68.7-40.5 37.3-57.8 68.2-57.8 103.2V919c0 22.2 18.1 40.3 40.3 40.3h298.1c22.2 0 40.3-18.1 40.3-40.3l0.1-630.3zM665.3 919c0 2.6-2.1 4.8-4.8 4.8H362.4c-2.6 0-4.8-2.1-4.8-4.8V568.1c0-17.8 5.6-39.5 46.4-77 26.5-24.4 55.9-46.8 81.9-66.5 42.9-32.6 76.7-58.3 88.8-84.6 15.8-34.4 16.1-100.8-7.2-131.8-13.8-18.3-33.5-28.8-53.9-28.8-30.4 0-70.2 25.2-82.3 96-6.1 35.8-15.4 48.5-35.4 48.5-2.2 0-4.7-0.2-7.2-0.5-12.9-1.7-20.6-5.2-25.1-11.4-6.6-9.2-7.7-26.5-3.1-50.1l0.9-4.9c9.4-49 28.8-150.9 152.9-157.9h0.9c7.1 0 44.1 1.2 79.5 25.1 45.9 31 69.6 86.5 70.6 164.7V919z" fill="#E66978" p-id="3354"></path><path d="M556.2 607.5c-16.4 0-31.9 6.4-44.7 18-12.8-11.6-28.3-18-44.7-18-32 0-60.2 23.1-68.4 56.2-4.2 16.9-5 43.6 15.3 75.2 17.7 27.6 47.8 52.8 89.5 74.9 2.6 1.4 5.5 2.1 8.3 2.1 2.9 0 5.7-0.7 8.3-2.1 41.7-22.1 71.8-47.3 89.5-74.9 20.2-31.5 19.5-58.3 15.3-75.2-8.3-33.1-36.4-56.2-68.4-56.2z m-123.3 64.7c4.2-16.9 18.4-29.2 33.9-29.2 11.4 0 21.7 6.7 29.6 19.5 3.2 5.2 9 8.4 15.1 8.4s11.9-3.2 15.1-8.4c7.9-12.8 18.2-19.5 29.6-19.5 15.4 0 29.7 12.3 33.9 29.2 3.2 12.9 6.6 57.6-78.6 105.5-85.2-47.9-81.8-92.6-78.6-105.5z" fill="#E66978" p-id="3355"></path></svg>